<?xml version="1.0" encoding="UTF-8"?>
<svg version="1.1" xmlns="http://www.w3.org/2000/svg" width="410" height="410">
<path d="M0 0 C4.03217511 2.19936824 6.38729533 4.82564938 8.5 8.875 C9.14819792 12.92623701 9.48852229 16.15865215 8 20 C5.32823171 23.65285641 2.17908332 26.78814262 -1 30 C-27.9596297 58.20515655 -47.1262574 92.91479613 -56.56665039 130.77514648 C-56.95904907 132.29410522 -56.95904907 132.29410522 -57.359375 133.84375 C-57.58077148 134.74287109 -57.80216797 135.64199219 -58.03027344 136.56835938 C-59.20587749 139.5162487 -60.54203659 141.00814425 -63 143 C-64.32 143.33 -65.64 143.66 -67 144 C-67.99 150.27 -68.98 156.54 -70 163 C-68.68 163.33 -67.36 163.66 -66 164 C-63.89015439 167.16476841 -63.76704391 167.75892512 -63.875 171.33984375 C-63.89183838 172.22470459 -63.90867676 173.10956543 -63.92602539 174.02124023 C-63.95043701 174.98360596 -63.97484863 175.94597168 -64 176.9375 C-64.12612902 186.31560795 -63.75807573 195.584843 -63.0625 204.9375 C-62.97548828 206.11497803 -62.88847656 207.29245605 -62.79882812 208.50561523 C-62.34425028 214.36167229 -61.79267 220.17994552 -61 226 C-59.7457226 225.25717552 -58.49677657 224.50534639 -57.25 223.75 C-56.20585937 223.12351563 -56.20585937 223.12351563 -55.140625 222.484375 C-50.7281353 219.65529317 -50.7281353 219.65529317 -48.64111328 215.05761719 C-48.4887749 212.69919341 -48.43938762 210.36329963 -48.4375 208 C-48.39134229 199.74436322 -48.39134229 199.74436322 -46.68359375 196.49609375 C-43.96032044 194.07610842 -41.56312218 194.06143314 -38 194 C-35.05244268 195.34562399 -33.45722728 196.08554544 -32 199 C-31.86657778 202.75435296 -31.75209017 206.50300617 -31.74609375 210.25976562 C-31.61524438 214.46416235 -31.43304598 216.43872942 -28.796875 219.85546875 C-26.10238681 221.92149391 -23.41663777 223.76312582 -20.5 225.5 C-12.39272087 230.54669986 -5.01156433 237.68645847 -2 247 C-1.06214005 255.7208795 -2.09650485 263.64475727 -7 271 C-7.33 275.29 -7.66 279.58 -8 284 C2.56 284 13.12 284 24 284 C23.9948756 278.73211262 23.97146365 273.47065393 23.90234375 268.20410156 C23.88426018 266.41576586 23.8766013 264.62729131 23.87988281 262.83886719 C24.36208388 250.14672386 24.36208388 250.14672386 18.48339844 239.47949219 C17.99387695 238.99125977 17.50435547 238.50302734 17 238 C15.35546875 234.8046875 15.35546875 234.8046875 14.1875 231.875 C13.78917969 230.90304688 13.39085937 229.93109375 12.98046875 228.9296875 C9.12374344 217.40560789 10.3696181 204.95374269 15.37109375 193.99609375 C25.40962113 175.53194386 40.8774033 165.08884431 59.50976562 156.54736328 C65.85439939 153.62219472 71.57698664 150.44993233 77 146 C77.66 145.46503906 78.32 144.93007812 79 144.37890625 C81.5727567 142.22958242 83.97247853 140.02826529 86.3125 137.625 C88 136 88 136 90 136 C90 130.72 90 125.44 90 120 C88.35 119.34 86.7 118.68 85 118 C79.56486859 114.60304287 76.31646667 109.11604135 74.3828125 103.0703125 C72.71539376 94.05263974 73.86100666 86.62887181 79 79 C81.25724889 76.29493229 81.6996645 76.04449415 85.375 75.5 C89 76 89 76 92 78.0625 C94 81 94 81 93.9375 84.5625 C93 88 93 88 91.9375 90 C90.4475291 93.17860459 90.58240472 95.53992484 91 99 C93.44771444 103.00535091 94.92602443 104.66804391 99.4375 106.0625 C103.58163699 105.98979584 105.54164271 105.25545041 109 103 C109.78375 102.113125 110.5675 101.22625 111.375 100.3125 C114.1285304 97.88677083 114.66673909 97.61990321 118.125 97.5 C122 98 122 98 123.9375 99.125 C125.511977 101.90348882 125.93812875 103.78269484 126 107 C122.75126123 114.40712441 117.51136443 118.89747991 110 122 C108.68 122 107.36 122 106 122 C106 126.62 106 131.24 106 136 C107.32 136.66 108.64 137.32 110 138 C111.4296875 139.41015625 111.4296875 139.41015625 112.875 141.0625 C120.36593986 148.71214621 129.97324554 153.68446245 139.625 158.0625 C158.05905291 166.44067812 175.11319854 179.45117071 182.5 198.9375 C186.39187419 211.19690369 186.06995771 223.72818779 180.3125 235.4296875 C175.89512712 243.10487288 175.89512712 243.10487288 173 246 C172.75418157 248.86436824 172.62630619 251.6390314 172.5859375 254.5078125 C172.56657135 255.34843231 172.5472052 256.18905212 172.5272522 257.05514526 C172.46738342 259.74499303 172.42104229 262.43488343 172.375 265.125 C172.3368269 266.94663344 172.29777556 268.7682487 172.2578125 270.58984375 C172.16001942 275.05980224 172.08051024 279.52956277 172 284 C182.56 284 193.12 284 204 284 C203.59130604 272.46269829 203.59130604 272.46269829 199 264 C196.60291647 256.82431487 196.90886841 248.33559787 200.1875 241.5625 C203.8542836 235.26497691 207.14064819 231.41033037 213.3125 227.5625 C214.26511719 226.96179688 215.21773438 226.36109375 216.19921875 225.7421875 C217.9281613 224.66672254 219.67779196 223.62285026 221.45703125 222.6328125 C224.0562248 220.9000168 225.41742395 219.72151893 227 217 C227.72999215 213.15606188 227.82665186 209.30190753 227.78955078 205.3972168 C227.73856491 199.50088764 227.73856491 199.50088764 229.30078125 196.5078125 C232.03432615 194.08218415 234.42356975 194.06166259 238 194 C240.94755732 195.34562399 242.54277272 196.08554544 244 199 C244.2331989 202.78300443 244.39490761 206.55983009 244.51757812 210.34765625 C244.55173828 211.13785156 244.58589844 211.92804688 244.62109375 212.7421875 C244.6461499 213.4626123 244.67120605 214.18303711 244.69702148 214.92529297 C245.04478401 217.30666761 245.75713713 218.94638071 247 221 C248.83388954 222.13346973 248.83388954 222.13346973 251 223 C261.19810732 228.80380091 268.1325382 234.08928268 273.375 244.8125 C275.1258775 253.74197524 274.43880301 261.04937292 270 269 C268.61442697 271.77114606 268.86763367 274.02945097 268.8581543 277.13037109 C268.85111984 278.41865814 268.84408539 279.70694519 268.83683777 281.03427124 C268.83502188 281.72484997 268.83320599 282.4154287 268.83133507 283.12693405 C268.82417243 285.28740915 268.80850779 287.44765675 268.78999329 289.60806274 C268.73751302 295.7510466 268.68954268 301.89390615 268.67407227 308.03710938 C268.66399083 311.79385134 268.63466356 315.55002155 268.59275246 319.30653763 C268.58043965 320.7378062 268.57532174 322.16915552 268.57755089 323.60047531 C268.57990338 325.6039914 268.5555487 327.60748491 268.5300293 329.61083984 C268.52416306 330.75064301 268.51829681 331.89044617 268.51225281 333.06478882 C267.88854419 336.63864237 266.88514788 337.85636428 264 340 C263.01 340 262.02 340 261 340 C261 346.27 261 352.54 261 359 C262.65 359.66 264.3 360.32 266 361 C268.63991268 363.63991268 268.30240797 364.97946296 268.4140625 368.6640625 C268.45273437 369.78554688 268.49140625 370.90703125 268.53125 372.0625 C268.5621875 373.238125 268.593125 374.41375 268.625 375.625 C268.66367187 376.80835938 268.70234375 377.99171875 268.7421875 379.2109375 C268.83668845 382.14046691 268.92224558 385.06998597 269 388 C287.77496529 377.76177674 304.19780457 365.40489519 320 351 C321.66362759 349.49663011 323.33015379 347.99645962 325 346.5 C325.721875 345.8503125 326.44375 345.200625 327.1875 344.53125 C330.81099485 341.47002159 333.93722567 341.72571587 338.52734375 341.78515625 C342.94272936 342.16879955 345.07539491 344.20034154 348.3125 347 C351.05549884 351.87644238 351.1989171 355.54031596 350 361 C341.09026153 383.65815843 324.45557573 405.32549273 308 423 C306.8705773 424.30869615 305.74541241 425.62108164 304.625 426.9375 C297.61217399 434.95215829 290.04931748 442.21818906 281.7109375 448.83984375 C279.98229941 450.21727439 278.27609773 451.62368778 276.6015625 453.06640625 C234.4766729 489.14497889 174.82036192 511.91041771 119.2421875 512.203125 C118.34442596 512.21013931 117.44666443 512.21715363 116.521698 512.22438049 C113.63941367 512.24178676 110.75733497 512.2482332 107.875 512.25 C106.88890747 512.25067474 105.90281494 512.25134949 104.88684082 512.25204468 C90.01650127 512.23587535 75.65880454 511.68324222 61 509 C59.63029053 508.77449463 59.63029053 508.77449463 58.23291016 508.54443359 C6.91590037 500.04309514 -43.91263516 474.71129626 -80 437 C-82.47636373 434.50320423 -84.96833505 432.03033325 -87.5078125 429.59765625 C-94.74838836 422.58402381 -100.98805944 415.08306065 -107 407 C-107.43731445 406.41283203 -107.87462891 405.82566406 -108.32519531 405.22070312 C-114.34007349 397.09006122 -119.92746157 388.75616753 -125 380 C-125.44601563 379.23751953 -125.89203125 378.47503906 -126.3515625 377.68945312 C-134.69678858 363.30844187 -141.24541943 348.58733728 -147 333 C-147.30131836 332.20174805 -147.60263672 331.40349609 -147.91308594 330.58105469 C-153.08498609 316.77104568 -156.17757778 302.44888972 -159 288 C-159.18224121 287.1037793 -159.36448242 286.20755859 -159.55224609 285.28417969 C-165.04285858 257.19191162 -164.52241393 224.03261421 -159 196 C-158.8443457 195.12182617 -158.68869141 194.24365234 -158.52832031 193.33886719 C-149.75214661 143.95756246 -125.89955406 97.33531667 -91.62890625 60.81640625 C-89.1385021 58.14838041 -86.72240656 55.428097 -84.3125 52.6875 C-80.46706634 48.41479593 -76.40504728 44.68103432 -72 41 C-71.08992188 40.20207031 -70.17984375 39.40414062 -69.2421875 38.58203125 C-55.30169478 26.40930593 -40.32576812 16.04541791 -24.09912109 7.15429688 C-22.21579718 6.11866586 -20.35134723 5.05581452 -18.48828125 3.984375 C-12.46093835 0.68129848 -6.91981614 -1.79269848 0 0 Z " fill="#010101" transform="translate(162,0)"/>
<path d="M0 0 C0.99 0.495 0.99 0.495 2 1 C1.23429687 1.804375 1.23429687 1.804375 0.453125 2.625 C-15.78265097 20.12739679 -28.97385063 40.366535 -39 62 C-39.33483398 62.70979004 -39.66966797 63.41958008 -40.01464844 64.15087891 C-52.70098196 90.09089052 -52.70098196 90.09089052 -56 118 C-54.27974216 120.37559416 -52.48676301 121.34215799 -50 123 C-50.99 129.27 -51.98 135.54 -53 142 C-56.96 142.99 -56.96 142.99 -61 144 C-61.98471941 147.93887766 -62.17787132 151.47412458 -62.203125 155.4921875 C-62.21000336 156.22642944 -62.21688171 156.96067139 -62.22396851 157.71716309 C-62.24120328 160.10315882 -62.24743685 162.48894512 -62.25 164.875 C-62.25167175 165.68656555 -62.25334351 166.4981311 -62.25506592 167.33428955 C-62.25668652 180.44526749 -61.35008808 193.08307172 -59 206 C-56.50018567 219.86576309 -56.50018567 219.86576309 -60 227 C-61.03804509 234.59289159 -59.63881257 240.35076418 -56 247 C-54.62623381 249.74753238 -54.87721137 251.9346009 -54.87974548 255.01101685 C-54.87768349 256.93356796 -54.87768349 256.93356796 -54.87557983 258.8949585 C-54.87911922 260.32336449 -54.88275404 261.75177025 -54.88647461 263.18017578 C-54.88675655 264.67798867 -54.88659861 266.17580169 -54.8860321 267.6736145 C-54.88574441 271.74775833 -54.89163662 275.82187291 -54.89860606 279.89600992 C-54.90484426 284.15079508 -54.90544377 288.40558085 -54.90663147 292.66036987 C-54.9097434 300.72098392 -54.91795495 308.78158445 -54.92798096 316.84219253 C-54.93914636 326.01739502 -54.94465363 335.19259814 -54.94967639 344.36780572 C-54.96013767 363.24521148 -54.97773446 382.12260466 -55 401 C-56.11353766 400.05414141 -57.22584758 399.10683733 -58.33764648 398.15893555 C-59.26697243 397.36787666 -59.26697243 397.36787666 -60.21507263 396.56083679 C-87.4944911 372.70624149 -106.50219441 335.16468963 -117.29150391 301.20361328 C-117.9475161 299.16323902 -118.64277333 297.14222488 -119.35546875 295.12109375 C-133.13344643 254.46546116 -133.95976128 207.56776107 -124 166 C-123.70851074 164.75283203 -123.70851074 164.75283203 -123.41113281 163.48046875 C-115.02071738 128.0124645 -99.73442792 94.60540655 -77 66 C-76.29617187 65.10410156 -75.59234375 64.20820312 -74.8671875 63.28515625 C-55.73215849 39.38351607 -33.0954858 19.96072736 -7 4 C-6.34805664 3.59410645 -5.69611328 3.18821289 -5.02441406 2.77001953 C-3.38684221 1.78215029 -1.69680684 0.88225493 0 0 Z " fill="#FDA80F" transform="translate(145,21)"/>
<path d="M0 0 C38.94 0 77.88 0 118 0 C118 56.1 118 112.2 118 170 C102 173 102 173 99 173 C98.99413376 171.86153625 98.98826752 170.72307251 98.98222351 169.55010986 C98.92482264 158.78149386 98.85197119 148.01307643 98.76428509 137.24466324 C98.71970155 131.70951057 98.68041927 126.17442948 98.65356445 120.63916016 C98.62741122 115.28977465 98.58692481 109.94066636 98.53681374 104.59145355 C98.52022596 102.55833148 98.50866163 100.52516156 98.50238609 98.49198151 C98.43156717 77.6425363 95.21021585 60.50318951 80 45 C76.81726996 42.3741277 73.52864601 40.13176377 70 38 C69.01 37.360625 68.02 36.72125 67 36.0625 C61.54594159 34.13085431 56.71996757 33.97564702 51.26171875 36.03125 C36.34931874 43.62455128 27.03155511 55.85336255 21.69140625 71.5625 C20.12349343 77.09005706 19.83415116 82.20847805 19.79467773 87.92114258 C19.77982834 89.25360016 19.77982834 89.25360016 19.76467896 90.61297607 C19.73316915 93.54013431 19.70834819 96.46730875 19.68359375 99.39453125 C19.66301514 101.42763178 19.64201843 103.46072812 19.62062073 105.49382019 C19.56549378 110.83833415 19.5160432 116.18288612 19.46777344 121.52746582 C19.41748988 126.98383965 19.36183962 132.44015845 19.30664062 137.89648438 C19.19917376 148.59760921 19.09770339 159.29878188 19 170 C16.39533418 169.52342708 13.79128286 169.04385281 11.1875 168.5625 C10.08051758 168.36043945 10.08051758 168.36043945 8.95117188 168.15429688 C5.88684924 167.58580263 2.96071047 166.98690349 0 166 C0 111.22 0 56.44 0 0 Z " fill="#D9EBFC" transform="translate(201,322)"/>
<path d="M0 0 C3.00413502 1.20259722 4.58864865 2.69751765 6.86328125 4.99609375 C15.90996226 13.44055487 26.87964336 18.78711749 37.91064453 24.18554688 C43.07396985 26.73212393 47.89630334 29.5013957 52.48828125 32.99609375 C53.17148437 33.51558594 53.8546875 34.03507812 54.55859375 34.5703125 C61.58183198 40.29839082 67.9949722 48.19617944 70.48828125 56.99609375 C71.45195054 66.83756642 70.29760995 74.60453184 65.23901844 83.09219551 C63.48828125 84.99609375 63.48828125 84.99609375 61.1368742 85.51621819 C60.20351647 85.5255192 59.27015875 85.53482021 58.30851746 85.54440308 C56.69982033 85.57432846 56.69982033 85.57432846 55.05862427 85.6048584 C53.88194183 85.60618774 52.7052594 85.60751709 51.49291992 85.60888672 C50.25366257 85.62553375 49.01440521 85.64218079 47.7375946 85.65933228 C44.33637526 85.69931757 40.93613585 85.72082183 37.53476501 85.73098516 C35.40912787 85.73827139 33.28358499 85.75075091 31.15798378 85.76498795 C23.73996467 85.81398718 16.32222538 85.84008196 8.90405273 85.84716797 C1.99316284 85.85443617 -4.91594914 85.91419815 -11.82629567 85.99797714 C-17.76191906 86.06741119 -23.69695382 86.09826526 -29.63298053 86.09966004 C-33.1773824 86.10124525 -36.71997443 86.118689 -40.26395607 86.17565536 C-44.21939158 86.23781234 -48.172283 86.21988936 -52.12817383 86.19482422 C-53.29878357 86.2244928 -54.46939331 86.25416138 -55.67547607 86.284729 C-58.92005195 86.22611458 -61.45313657 86.08676558 -64.51171875 84.99609375 C-70.92050376 78.14942338 -72.14224695 70.0441366 -71.91015625 60.98828125 C-71.20336531 50.49669655 -63.97896648 41.84201225 -56.51171875 34.99609375 C-48.78674559 28.63942128 -40.52289248 24.43964555 -31.47143555 20.30053711 C-21.20656872 15.56282689 -12.73211379 9.68722305 -4.765625 1.5859375 C-2.51171875 -0.00390625 -2.51171875 -0.00390625 0 0 Z " fill="#928392" transform="translate(260.51171875,150.00390625)"/>
<path d="M0 0 C0.99 0.495 0.99 0.495 2 1 C1.23429687 1.804375 1.23429687 1.804375 0.453125 2.625 C-15.78265097 20.12739679 -28.97385063 40.366535 -39 62 C-39.33483398 62.70979004 -39.66966797 63.41958008 -40.01464844 64.15087891 C-52.70098196 90.09089052 -52.70098196 90.09089052 -56 118 C-54.27974216 120.37559416 -52.48676301 121.34215799 -50 123 C-51.485 132.405 -51.485 132.405 -53 142 C-56.96 142.99 -56.96 142.99 -61 144 C-61.98471941 147.93887766 -62.17787132 151.47412458 -62.203125 155.4921875 C-62.21000336 156.22642944 -62.21688171 156.96067139 -62.22396851 157.71716309 C-62.24120328 160.10315882 -62.24743685 162.48894512 -62.25 164.875 C-62.25250763 166.09234833 -62.25250763 166.09234833 -62.25506592 167.33428955 C-62.25668652 180.44526749 -61.35008808 193.08307172 -59 206 C-56.50018567 219.86576309 -56.50018567 219.86576309 -60 227 C-61.03804509 234.59289159 -59.63881257 240.35076418 -56 247 C-54.47490511 250.05018978 -54.87024056 253.22549613 -54.88647461 256.57080078 C-54.88632858 257.35137848 -54.88618256 258.13195618 -54.8860321 258.93618774 C-54.88673014 261.52259069 -54.89451743 264.10892209 -54.90234375 266.6953125 C-54.90420832 268.48607341 -54.90563204 270.27683483 -54.90663147 272.06759644 C-54.91045359 276.78584191 -54.92028129 281.5040567 -54.93133545 286.22229004 C-54.94155611 291.03490789 -54.9461305 295.84753068 -54.95117188 300.66015625 C-54.96190381 310.10678433 -54.9789766 319.55338962 -55 329 C-59.41395911 323.53132028 -59.41395911 323.53132028 -61.078125 320.57421875 C-61.43011963 319.9512793 -61.78211426 319.32833984 -62.14477539 318.68652344 C-62.69186157 317.69700684 -62.69186157 317.69700684 -63.25 316.6875 C-63.83479126 315.6341748 -63.83479126 315.6341748 -64.43139648 314.55957031 C-78.96997663 288.16219693 -90.05964288 260.34712411 -94.62548828 230.43945312 C-94.95343825 228.30328877 -95.31315214 226.17595098 -95.68359375 224.046875 C-105.49861621 160.41845352 -80.25127035 95.52233684 -43.38134766 44.77197266 C-36.29415475 35.1910988 -28.77174693 26.02967392 -21 17 C-20.55398437 16.44103027 -20.10796875 15.88206055 -19.6484375 15.30615234 C-18.47298108 13.83726145 -17.24048422 12.41440346 -16 11 C-15.34 11 -14.68 11 -14 11 C-13.79375 10.41863281 -13.5875 9.83726563 -13.375 9.23828125 C-11.4688131 6.13531224 -9.14367807 4.98226813 -6 3.1875 C-4.9275 2.56230469 -3.855 1.93710937 -2.75 1.29296875 C-1.8425 0.86628906 -0.935 0.43960937 0 0 Z " fill="#FEC263" transform="translate(145,21)"/>
<path d="M0 0 C38.94 0 77.88 0 118 0 C118 18.81 118 37.62 118 57 C79.06 57 40.12 57 0 57 C0 38.19 0 19.38 0 0 Z " fill="#B3DAFD" transform="translate(201,250)"/>
<path d="M0 0 C10.56 0 21.12 0 32 0 C32 59.07 32 118.14 32 179 C4.85714286 189 4.85714286 189 0 189 C0 126.63 0 64.26 0 0 Z " fill="#8AC9FD" transform="translate(334,299)"/>
<path d="M0 0 C10.38978232 5.77210129 17.69640581 15.22594031 21.06246948 26.58557129 C22.19468622 31.26157968 22.26757541 35.74549793 22.22705078 40.53710938 C22.22734283 41.45511322 22.22763489 42.37311707 22.22793579 43.31893921 C22.22655201 46.32730852 22.21103588 49.33542441 22.1953125 52.34375 C22.19157898 54.43981796 22.18873361 56.53588767 22.18673706 58.63195801 C22.17912728 64.12940348 22.15950169 69.62674206 22.1373291 75.12414551 C22.11681335 80.74160313 22.10772311 86.35907815 22.09765625 91.9765625 C22.07625322 102.98442178 22.04214947 113.99220197 22 125 C18.04390653 125.0109368 14.08781911 125.01881212 10.13171387 125.02403259 C8.13565765 125.02727566 6.13960564 125.03283903 4.14355469 125.03845215 C-18.05757178 125.06294898 -18.05757178 125.06294898 -28 123 C-28.09294224 111.06435104 -28.16388772 99.12878909 -28.20724869 87.19285107 C-28.22806652 81.64967698 -28.25627779 76.10675166 -28.30175781 70.5637207 C-28.34542293 65.20798125 -28.3691807 59.85248012 -28.37950897 54.49657631 C-28.38686336 52.45976323 -28.40122426 50.42296225 -28.42292023 48.38625145 C-28.63159573 27.97315078 -28.63159573 27.97315078 -24 19 C-23.48179687 17.94425781 -22.96359375 16.88851563 -22.4296875 15.80078125 C-17.80499053 8.39894213 -9.75985168 -2.88359254 0 0 Z " fill="#908190" transform="translate(263,372)"/>
<path d="M0 0 C10.56 0 21.12 0 32 0 C32 60.39 32 120.78 32 183 C24.12342043 181.87477435 24.12342043 181.87477435 19.86328125 180.00390625 C18.95642578 179.61009766 18.04957031 179.21628906 17.11523438 178.81054688 C16.19033203 178.39869141 15.26542969 177.98683594 14.3125 177.5625 C13.37599609 177.15451172 12.43949219 176.74652344 11.47460938 176.32617188 C7.59885563 174.63035671 3.7853764 172.8926882 0 171 C0 114.57 0 58.14 0 0 Z " fill="#B4DBFE" transform="translate(154,299)"/>
<path d="M0 0 C11.22 0 22.44 0 34 0 C34.375 8.8125 34.375 8.8125 34.47802734 11.57739258 C34.5136377 12.30079834 34.54924805 13.0242041 34.5859375 13.76953125 C34.6173584 14.50792236 34.6487793 15.24631348 34.68115234 16.00708008 C34.90834614 18.31349588 34.90834614 18.31349588 37 21 C38.65 21.33 40.3 21.66 42 22 C42 28.93 42 35.86 42 43 C40.02 43.66 38.04 44.32 36 45 C34.40897652 48.18204696 34.90966912 51.61100135 34.95336914 55.10229492 C34.96614616 56.83871736 34.97858647 58.57514229 34.99073792 60.31156921 C34.99865419 61.2349024 35.00657047 62.15823559 35.01472664 63.10954857 C35.05676325 69.01684371 35.04499846 74.92433586 35.04483891 80.83175182 C35.04783628 86.02546175 35.06852586 91.21797129 35.12670898 96.41137695 C35.18192119 101.43282128 35.18833997 106.4522479 35.16201591 111.47390175 C35.16078213 113.38566479 35.17724926 115.29752602 35.21193123 117.20897484 C35.46904934 132.1725683 35.46904934 132.1725683 31.85243225 136.67147827 C29.29207861 138.4933714 26.8794212 139.76097499 24 141 C22.50451077 141.90159345 21.01901105 142.82028906 19.55078125 143.765625 C18.14055546 144.59805892 16.72781903 145.42625547 15.3125 146.25 C14.60544922 146.67023438 13.89839844 147.09046875 13.16992188 147.5234375 C8.8168559 150.07509645 4.72109518 151.97667349 0 154 C0 103.18 0 52.36 0 0 Z " fill="#D8EAFC" transform="translate(381,317)"/>
<path d="M0 0 C11.22 0 22.44 0 34 0 C34 47.52 34 95.04 34 144 C26.77968058 139.788147 20.14682551 135.91519375 13.625 130.875 C12.96628906 130.37613281 12.30757812 129.87726563 11.62890625 129.36328125 C9.73890448 127.92417454 7.85938566 126.47851972 6 125 C4.47545197 124.07265297 4.47545197 124.07265297 2.92010498 123.12657166 C0.80479573 121.33943682 0.08120636 120.35295493 -0.54579353 117.62776566 C-0.74049437 114.54250496 -0.74154256 111.50772897 -0.68115234 108.41674805 C-0.6820285 107.24558945 -0.68290466 106.07443085 -0.68380737 104.86778259 C-0.67962872 100.99841517 -0.63295778 97.13078318 -0.5859375 93.26171875 C-0.57474633 90.57840539 -0.56591073 87.89518804 -0.56021118 85.21186829 C-0.54157897 78.87227789 -0.49236515 72.53330996 -0.43211424 66.19399339 C-0.36499753 58.97523956 -0.33204733 51.75645564 -0.30194163 44.53746736 C-0.23926357 29.69125637 -0.12925241 14.84579894 0 0 Z " fill="#B4DAFD" transform="translate(105,317)"/>
<path d="M0 0 C8.91 0 17.82 0 27 0 C27.23613903 7.38343628 27.46696158 14.76401755 27.64954376 22.14848328 C27.73602555 25.5880215 27.83155625 29.0267318 27.94995117 32.46533203 C28.08573533 36.42161017 28.17854847 40.37836636 28.26953125 44.3359375 C28.31721146 45.55300385 28.36489166 46.77007019 28.41401672 48.02401733 C28.53658784 54.99698558 27.71016388 59.53489988 24.30102539 65.6053009 C18.55876065 76.17465358 19.5249892 88.31983022 19.48828125 99.98046875 C19.47141209 102.00500055 19.45325888 104.02952201 19.43388367 106.05403137 C19.38662049 111.34913911 19.35665844 116.64420494 19.33044434 121.93945312 C19.30051866 127.35620393 19.25402989 132.77281069 19.20898438 138.18945312 C19.12322103 148.79289302 19.05575648 159.39636279 19 170 C16.39533418 169.52342708 13.79128286 169.04385281 11.1875 168.5625 C10.08051758 168.36043945 10.08051758 168.36043945 8.95117188 168.15429688 C5.88684924 167.58580263 2.96071047 166.98690349 0 166 C0 111.22 0 56.44 0 0 Z " fill="#B3DAFD" transform="translate(201,322)"/>
<path d="M0 0 C5.28 0 10.56 0 16 0 C16 58.74 16 117.48 16 178 C3 183 3 183 0 183 C0 122.61 0 62.22 0 0 Z " fill="#B3DBFE" transform="translate(350,300)"/>
<path d="M0 0 C3.3125 1.8125 3.3125 1.8125 6 4 C6 8.28894887 5.73080118 8.78372035 3.3125 12 C-3.41181577 21.62437613 -6.12460588 31.27906358 -6.20532227 42.8293457 C-6.22017166 44.14717293 -6.22017166 44.14717293 -6.23532104 45.49162292 C-6.26682801 48.38631525 -6.29165067 51.28102397 -6.31640625 54.17578125 C-6.33698511 56.18646158 -6.35798183 58.19713767 -6.37937927 60.20780945 C-6.43450368 65.49313928 -6.48395537 70.77850753 -6.53222656 76.06390381 C-6.58251198 81.45995492 -6.63816127 86.85595042 -6.69335938 92.25195312 C-6.80082313 102.83458788 -6.90229418 113.41727097 -7 124 C-9.5625718 124.02710123 -12.12485365 124.04688771 -14.6875 124.0625 C-15.40873047 124.07087891 -16.12996094 124.07925781 -16.87304688 124.08789062 C-20.71555382 124.10543632 -24.26639526 123.93524221 -28 123 C-28.09294224 111.06435104 -28.16388772 99.12878909 -28.20724869 87.19285107 C-28.22806652 81.64967698 -28.25627779 76.10675166 -28.30175781 70.5637207 C-28.34542293 65.20798125 -28.3691807 59.85248012 -28.37950897 54.49657631 C-28.38686336 52.45976323 -28.40122426 50.42296225 -28.42292023 48.38625145 C-28.63159573 27.97315078 -28.63159573 27.97315078 -24 19 C-23.48179687 17.94425781 -22.96359375 16.88851563 -22.4296875 15.80078125 C-17.80499053 8.39894213 -9.75985168 -2.88359254 0 0 Z " fill="#796A77" transform="translate(263,372)"/>
<path d="M0 0 C10.56 0 21.12 0 32 0 C32 60.39 32 120.78 32 183 C25 182 25 182 17 179 C17.33 120.26 17.66 61.52 18 1 C12.06 1 6.12 1 0 1 C0 0.67 0 0.34 0 0 Z " fill="#8AC9FD" transform="translate(154,299)"/>
<path d="M0 0 C38.94 0 77.88 0 118 0 C118 18.81 118 37.62 118 57 C79.06 57 40.12 57 0 57 C0 38.19 0 19.38 0 0 Z M27 1 C27 5.29 27 9.58 27 14 C29.475 15.98 29.475 15.98 32 18 C32.64697266 20.31835938 32.64697266 20.31835938 32.6640625 22.84375 C32.67050781 23.76027344 32.67695313 24.67679687 32.68359375 25.62109375 C32.66425781 26.57113281 32.64492187 27.52117187 32.625 28.5 C32.64433594 29.45003906 32.66367188 30.40007812 32.68359375 31.37890625 C32.67714844 32.29542969 32.67070312 33.21195312 32.6640625 34.15625 C32.65842285 34.98962891 32.6527832 35.82300781 32.64697266 36.68164062 C32 39 32 39 27 43 C27 47.29 27 51.58 27 56 C56.7 56 86.4 56 117 56 C117 37.85 117 19.7 117 1 C87.3 1 57.6 1 27 1 Z " fill="#8AC3F4" transform="translate(201,250)"/>
<path d="M0 0 C2.84527583 1.10947863 4.56792338 2.45341374 6.796875 4.53125 C7.49425781 5.17191406 8.19164062 5.81257812 8.91015625 6.47265625 C9.42964844 6.96636719 9.94914062 7.46007812 10.484375 7.96875 C7.14419429 10.19553714 3.64384952 11.89822294 0.046875 13.65625 C-18.84308944 23.04057149 -34.6222283 33.04754139 -43.515625 52.96875 C-47.07041305 63.63311414 -44.37589861 75.24820277 -39.515625 84.96875 C-43.55576015 85.26021369 -47.59319929 85.43704657 -51.640625 85.59375 C-52.78273437 85.67753906 -53.92484375 85.76132813 -55.1015625 85.84765625 C-58.50551572 85.94660838 -61.23762281 85.90935483 -64.515625 84.96875 C-70.49991161 78.82369978 -71.91146234 71.30564611 -71.96655273 63.0090332 C-71.70120591 52.65557052 -66.11553755 44.62149919 -59.09765625 37.3359375 C-50.76367051 29.6953999 -41.66593896 24.93321518 -31.4753418 20.27319336 C-21.21047497 15.53548314 -12.73602004 9.6598793 -4.76953125 1.55859375 C-2.515625 -0.03125 -2.515625 -0.03125 0 0 Z " fill="#796B78" transform="translate(260.515625,150.03125)"/>
<path d="M0 0 C4.29 0 8.58 0 13 0 C13 47.52 13 95.04 13 144 C1 137 1 137 0 136 C-0.09632045 134.2410657 -0.1218751 132.47822841 -0.12025452 130.71665955 C-0.12162918 129.57095993 -0.12300385 128.42526031 -0.12442017 127.24484253 C-0.12082489 125.97673737 -0.11722961 124.7086322 -0.11352539 123.40209961 C-0.11324352 122.06206769 -0.11340125 120.72203561 -0.1139679 119.38200378 C-0.11425587 115.73340562 -0.1083592 112.08484005 -0.10139394 108.43624949 C-0.09516034 104.62722484 -0.0945566 100.8181995 -0.09336853 97.00917053 C-0.09025523 89.79142246 -0.08204186 82.57368946 -0.07201904 75.35594803 C-0.06085786 67.14084743 -0.05534744 58.92574612 -0.05032361 50.71063983 C-0.03985925 33.80708425 -0.02205939 16.90354429 0 0 Z " fill="#D6E7F9" transform="translate(126,317)"/>
<path d="M0 0 C0.495 0.99 0.495 0.99 1 2 C-0.43504113 4.73737953 -1.92979092 7.31978171 -3.5625 9.9375 C-4.05556641 10.73365723 -4.54863281 11.52981445 -5.05664062 12.35009766 C-13.16883756 25.23639807 -22.12436601 37.48992815 -32.63671875 48.51953125 C-34.60243276 50.58271868 -36.43419411 52.68224201 -38.25 54.875 C-41.8024621 58.97466286 -45.74118137 62.66087305 -49.6875 66.375 C-50.34202148 66.99487793 -50.99654297 67.61475586 -51.67089844 68.25341797 C-52.29899414 68.83752441 -52.92708984 69.42163086 -53.57421875 70.0234375 C-54.13713623 70.54856934 -54.70005371 71.07370117 -55.2800293 71.61474609 C-57 73 -57 73 -61 75 C-61 64.11 -61 53.22 -61 42 C-58.23625 40.5975 -55.4725 39.195 -52.625 37.75 C-33.31501211 27.71282921 -15.82476282 14.90508723 0 0 Z " fill="#FAA610" transform="translate(491,364)"/>
<path d="M0 0 C8.43139969 2.34600497 18.58460589 9.30360157 23 17 C24.45037597 22.25761288 24.09002216 23.7749446 22 29 C8.14 29 -5.72 29 -20 29 C-21.78869246 24.52826884 -22.51469089 22.59588686 -22 18 C-17.62556173 10.59228362 -10.24169652 6.22334805 -3 2 C-2.01 1.34 -1.02 0.68 0 0 Z " fill="#766874" transform="translate(397,232)"/>
<path d="M0 0 C8.43139969 2.34600497 18.58460589 9.30360157 23 17 C24.45037597 22.25761288 24.09002216 23.7749446 22 29 C8.14 29 -5.72 29 -20 29 C-21.78869246 24.52826884 -22.51469089 22.59588686 -22 18 C-17.62556173 10.59228362 -10.24169652 6.22334805 -3 2 C-2.01 1.34 -1.02 0.68 0 0 Z " fill="#766875" transform="translate(121,232)"/>
<path d="M0 0 C11.22 0 22.44 0 34 0 C34 8.58 34 17.16 34 26 C22.78 26 11.56 26 0 26 C0 17.42 0 8.84 0 0 Z " fill="#B3D9FC" transform="translate(381,276)"/>
<path d="M0 0 C11.22 0 22.44 0 34 0 C34 8.58 34 17.16 34 26 C22.78 26 11.56 26 0 26 C0 17.42 0 8.84 0 0 Z " fill="#8AC9FD" transform="translate(105,276)"/>
<path d="M0 0 C0.66 0.33 1.32 0.66 2 1 C-5.7680711 12.04721587 -13.74152832 22.66925092 -22.87109375 32.6484375 C-24.67824597 34.64459463 -26.40357146 36.68076365 -28.125 38.75 C-31.72556659 42.88682119 -35.69740251 46.62017443 -39.6875 50.375 C-40.34186035 50.9947168 -40.9962207 51.61443359 -41.67041016 52.25292969 C-42.29866699 52.83719727 -42.92692383 53.42146484 -43.57421875 54.0234375 C-44.13713623 54.54856934 -44.70005371 55.07370117 -45.2800293 55.61474609 C-47.09121198 57.07346157 -48.88909382 58.03790004 -51 59 C-51.9948329 53.03100259 -52.99296287 46.85140143 -51 41 C-47.18138786 36.62163146 -41.39870947 34.50905691 -36.22705078 32.11230469 C-22.42727656 25.21998158 -9.76532671 11.68298905 0 0 Z " fill="#F9BE61" transform="translate(481,380)"/>
<path d="M0 0 C6.34504636 1.30154797 10.66734081 5.40738126 15 10 C17.46492557 13.89593099 16.91175226 16.52412525 16 21 C15.67 21.66 15.34 22.32 15 23 C11.35418313 23.02887512 7.70839537 23.04675585 4.0625 23.0625 C2.50112305 23.07506836 2.50112305 23.07506836 0.90820312 23.08789062 C-0.08115234 23.09111328 -1.07050781 23.09433594 -2.08984375 23.09765625 C-3.46450806 23.10551147 -3.46450806 23.10551147 -4.86694336 23.11352539 C-7 23 -7 23 -8 22 C-8.74592993 15.31532023 -7.79144576 9.75515917 -3.6875 4.234375 C-2.49862729 2.78881386 -1.25393759 1.38949841 0 0 Z " fill="#918291" transform="translate(128,237)"/>
<path d="M0 0 C6.34504636 1.30154797 10.66734081 5.40738126 15 10 C17.72734751 14.23609295 16.86616276 17.1967338 16 22 C15 23 15 23 12.86694336 23.11352539 C11.95050049 23.10828857 11.03405762 23.10305176 10.08984375 23.09765625 C9.10048828 23.09443359 8.11113281 23.09121094 7.09179688 23.08789062 C6.05087891 23.07951172 5.00996094 23.07113281 3.9375 23.0625 C2.89271484 23.05798828 1.84792969 23.05347656 0.77148438 23.04882812 C-1.8190666 23.03699913 -4.40950559 23.02051689 -7 23 C-8.63635158 19.72729684 -8.53175845 16.53531717 -8 13 C-6.11354322 8.06899134 -3.9493775 3.57876143 0 0 Z " fill="#918291" transform="translate(404,237)"/>
<path d="M0 0 C2.73303 2.01971718 4.70249952 3.60243569 5.43286133 7.03344727 C5.56475056 9.39541689 5.53478391 11.69907315 5.4375 14.0625 C5.43169922 14.86494141 5.42589844 15.66738281 5.41992188 16.49414062 C5.33602267 20.5380822 5.1902846 23.49067633 3 27 C-0.49124017 29.32749345 -1.89222251 29.50299316 -6 29 C-8.16015625 27.6328125 -8.16015625 27.6328125 -10 25 C-10.60095727 21.49243444 -10.55780958 18.05047141 -10.5 14.5 C-10.51546875 13.54996094 -10.5309375 12.59992188 -10.546875 11.62109375 C-10.50805438 4.7207283 -10.50805438 4.7207283 -8.15234375 1.37890625 C-5.14596059 -0.54714322 -3.50556537 -0.64387935 0 0 Z " fill="#060708" transform="translate(296,264)"/>
<path d="M0 0 C3.33308549 0.98758088 4.34944206 1.3356411 6.375 4 C7.03154826 7.44726007 6.88442277 10.9345859 6.875 14.4375 C6.90335938 15.39205078 6.93171875 16.34660156 6.9609375 17.33007812 C6.98045356 24.30218912 6.98045356 24.30218912 4.0703125 27.65625 C0.34708431 29.51246811 -1.69129124 29.23838979 -5.625 28 C-9.24563667 23.68049626 -9.14244203 19.37214553 -9.125 14 C-9.16753906 12.80890625 -9.16753906 12.80890625 -9.2109375 11.59375 C-9.22533421 7.27473744 -8.99705419 5.49439066 -6.3203125 1.9375 C-3.625 0 -3.625 0 0 0 Z " fill="#040607" transform="translate(227.625,264)"/>
<path d="M0 0 C3.79274664 0.72627063 4.70149112 1.39717942 6.9375 4.5625 C7.56456339 8.06906918 7.54098925 11.50849056 7.5 15.0625 C7.52384766 16.01253906 7.54769531 16.96257812 7.57226562 17.94140625 C7.55763338 24.87708942 7.55763338 24.87708942 4.5625 28.1875 C1.61396777 29.73196926 0.20106099 30.23194841 -3.0625 29.5625 C-5.30682982 27.69222515 -6.75693202 26.17363596 -8.0625 23.5625 C-8.26661054 20.60872888 -8.38632545 17.70649311 -8.4375 14.75 C-8.47488281 13.94240234 -8.51226562 13.13480469 -8.55078125 12.30273438 C-8.61554766 7.90941294 -8.49110675 6.12105284 -5.73046875 2.5234375 C-3.0625 0.5625 -3.0625 0.5625 0 0 Z " fill="#060708" transform="translate(260.0625,263.4375)"/>
<path d="M0 0 C4.29 0 8.58 0 13 0 C13 8.58 13 17.16 13 26 C8.71 26 4.42 26 0 26 C0 17.42 0 8.84 0 0 Z " fill="#B1D7FA" transform="translate(126,276)"/>
</svg>
